HIERARCHY
ROOT Hips
{
	OFFSET -14.64140 90.27770 -84.91600
	CHANNELS 6 Xposition Yposition Zposition Zrotation Xrotation Yrotation
	JOINT Spine
	{
		OFFSET 0.00000 13.20850 -1.60436
		CHANNELS 3 Zrotation Xrotation Yrotation
		JOINT Spine1
		{
			OFFSET 0.00000 8.61716 0.00000
			CHANNELS 3 Zrotation Xrotation Yrotation
			JOINT Spine2
			{
				OFFSET 0.00000 8.61717 0.00000
				CHANNELS 3 Zrotation Xrotation Yrotation
				JOINT Spine3
				{
					OFFSET 0.00000 8.61717 0.00000
					CHANNELS 3 Zrotation Xrotation Yrotation
					JOINT Neck
					{
						OFFSET 0.00000 11.07920 1.10792
						CHANNELS 3 Zrotation Xrotation Yrotation
						JOINT Neck1
						{
							OFFSET 0.00000 7.08032 0.00000
							CHANNELS 3 Zrotation Xrotation Yrotation
							JOINT Head
							{
								OFFSET 0.00000 7.08031 0.00000
								CHANNELS 3 Zrotation Xrotation Yrotation
								End site
								{
									OFFSET 0.00000 0.00000 0.00000
								}
							}
						}
					}
					JOINT RightShoulder
					{
						OFFSET -0.01000 7.91373 5.19711
						CHANNELS 3 Zrotation Xrotation Yrotation
						JOINT RightArm
						{
							OFFSET -18.41580 0.00000 0.00000
							CHANNELS 3 Zrotation Xrotation Yrotation
							JOINT RightForeArm
							{
								OFFSET -29.11090 0.00000 0.00000
								CHANNELS 3 Zrotation Xrotation Yrotation
								JOINT RightHand
								{
									OFFSET -24.65040 0.00000 0.00000
									CHANNELS 3 Zrotation Xrotation Yrotation
									JOINT RightHandThumb1
									{
										OFFSET -5.35114 -0.85590 3.97906
										CHANNELS 3 Zrotation Xrotation Yrotation
										JOINT RightHandThumb2
										{
											OFFSET -4.52789 0.00000 0.00000
											CHANNELS 3 Zrotation Xrotation Yrotation
											JOINT RightHandThumb3
											{
												OFFSET -2.46976 0.00000 0.00000
												CHANNELS 3 Zrotation Xrotation Yrotation
												End site
												{
													OFFSET 0.00000 0.00000 0.00000
												}
											}
										}
									}
									JOINT RightHandIndex1
									{
										OFFSET -14.26970 0.00000 2.88139
										CHANNELS 3 Zrotation Xrotation Yrotation
										JOINT RightHandIndex2
										{
											OFFSET -5.48836 0.00000 0.00000
											CHANNELS 3 Zrotation Xrotation Yrotation
											JOINT RightHandIndex3
											{
												OFFSET -3.01859 0.00000 0.00000
												CHANNELS 3 Zrotation Xrotation Yrotation
												End site
												{
													OFFSET 0.00000 0.00000 0.00000
												}
											}
										}
									}
									JOINT RightHandMiddle1
									{
										OFFSET -14.26970 0.00000 -0.09147
										CHANNELS 3 Zrotation Xrotation Yrotation
										JOINT RightHandMiddle2
										{
											OFFSET -6.17441 0.00000 0.00000
											CHANNELS 3 Zrotation Xrotation Yrotation
											JOINT RightHandMiddle3
											{
												OFFSET -3.56743 0.00000 0.00000
												CHANNELS 3 Zrotation Xrotation Yrotation
												End site
												{
													OFFSET 0.00000 0.00000 0.00000
												}
											}
										}
									}
									JOINT RightHandRing1
									{
										OFFSET -12.69180 0.00000 -3.06433
										CHANNELS 3 Zrotation Xrotation Yrotation
										JOINT RightHandRing2
										{
											OFFSET -5.62556 0.00000 0.00000
											CHANNELS 3 Zrotation Xrotation Yrotation
											JOINT RightHandRing3
											{
												OFFSET -3.56744 0.00000 0.00000
												CHANNELS 3 Zrotation Xrotation Yrotation
												End site
												{
													OFFSET 0.00000 0.00000 0.00000
												}
											}
										}
									}
									JOINT RightHandPinky1
									{
										OFFSET -11.11390 0.00000 -6.03719
										CHANNELS 3 Zrotation Xrotation Yrotation
										JOINT RightHandPinky2
										{
											OFFSET -4.52789 0.00000 0.00000
											CHANNELS 3 Zrotation Xrotation Yrotation
											JOINT RightHandPinky3
											{
												OFFSET -2.46976 0.00000 0.00000
												CHANNELS 3 Zrotation Xrotation Yrotation
												End site
												{
													OFFSET 0.00000 0.00000 0.00000
												}
											}
										}
									}
								}
							}
						}
					}
					JOINT LeftShoulder
					{
						OFFSET 0.01000 7.91373 5.19711
						CHANNELS 3 Zrotation Xrotation Yrotation
						JOINT LeftArm
						{
							OFFSET 18.41580 0.00000 0.00000
							CHANNELS 3 Zrotation Xrotation Yrotation
							JOINT LeftForeArm
							{
								OFFSET 29.11090 0.00000 0.00000
								CHANNELS 3 Zrotation Xrotation Yrotation
								JOINT LeftHand
								{
									OFFSET 24.65040 0.00000 0.00000
									CHANNELS 3 Zrotation Xrotation Yrotation
									JOINT LeftHandThumb1
									{
										OFFSET 5.35114 -0.85590 3.97906
										CHANNELS 3 Zrotation Xrotation Yrotation
										JOINT LeftHandThumb2
										{
											OFFSET 4.52789 0.00000 0.00000
											CHANNELS 3 Zrotation Xrotation Yrotation
											JOINT LeftHandThumb3
											{
												OFFSET 2.46977 0.00000 0.00000
												CHANNELS 3 Zrotation Xrotation Yrotation
												End site
												{
													OFFSET 0.00000 0.00000 0.00000
												}
											}
										}
									}
									JOINT LeftHandIndex1
									{
										OFFSET 14.26970 0.00000 2.88139
										CHANNELS 3 Zrotation Xrotation Yrotation
										JOINT LeftHandIndex2
										{
											OFFSET 5.48836 0.00000 0.00000
											CHANNELS 3 Zrotation Xrotation Yrotation
											JOINT LeftHandIndex3
											{
												OFFSET 3.01859 0.00000 0.00000
												CHANNELS 3 Zrotation Xrotation Yrotation
												End site
												{
													OFFSET 0.00000 0.00000 0.00000
												}
											}
										}
									}
									JOINT LeftHandMiddle1
									{
										OFFSET 14.26970 0.00000 -0.09147
										CHANNELS 3 Zrotation Xrotation Yrotation
										JOINT LeftHandMiddle2
										{
											OFFSET 6.17440 0.00000 0.00000
											CHANNELS 3 Zrotation Xrotation Yrotation
											JOINT LeftHandMiddle3
											{
												OFFSET 3.56744 0.00000 0.00000
												CHANNELS 3 Zrotation Xrotation Yrotation
												End site
												{
													OFFSET 0.00000 0.00000 0.00000
												}
											}
										}
									}
									JOINT LeftHandRing1
									{
										OFFSET 12.69180 0.00000 -3.06433
										CHANNELS 3 Zrotation Xrotation Yrotation
										JOINT LeftHandRing2
										{
											OFFSET 5.62556 0.00000 0.00000
											CHANNELS 3 Zrotation Xrotation Yrotation
											JOINT LeftHandRing3
											{
												OFFSET 3.56744 0.00000 0.00000
												CHANNELS 3 Zrotation Xrotation Yrotation
												End site
												{
													OFFSET 0.00000 0.00000 0.00000
												}
											}
										}
									}
									JOINT LeftHandPinky1
									{
										OFFSET 11.11390 0.00000 -6.03719
										CHANNELS 3 Zrotation Xrotation Yrotation
										JOINT LeftHandPinky2
										{
											OFFSET 4.52789 0.00000 0.00000
											CHANNELS 3 Zrotation Xrotation Yrotation
											JOINT LeftHandPinky3
											{
												OFFSET 2.46976 0.00000 0.00000
												CHANNELS 3 Zrotation Xrotation Yrotation
												End site
												{
													OFFSET 0.00000 0.00000 0.00000
												}
											}
										}
									}
								}
							}
						}
					}
					JOINT pCube4
					{
						OFFSET 0.00000 10.91090 1.10792
						CHANNELS 3 Zrotation Xrotation Yrotation
						End site
						{
							OFFSET 0.00000 0.00000 0.00000
						}
					}
				}
			}
		}
	}
	JOINT RightUpLeg
	{
		OFFSET -9.98441 0.00000 0.00000
		CHANNELS 3 Zrotation Xrotation Yrotation
		JOINT RightLeg
		{
			OFFSET 0.00000 -42.11790 0.00000
			CHANNELS 3 Zrotation Xrotation Yrotation
			JOINT RightFoot
			{
				OFFSET 0.00000 -45.00020 -0.00001
				CHANNELS 3 Zrotation Xrotation Yrotation
				JOINT RightForeFoot
				{
					OFFSET 0.00000 -3.74820 0.00000
					CHANNELS 3 Zrotation Xrotation Yrotation
					JOINT RightToeBase
					{
						OFFSET 0.00000 0.06325 14.43120
						CHANNELS 3 Zrotation Xrotation Yrotation
						End site
						{
							OFFSET 0.00000 0.00000 0.00000
						}
					}
				}
			}
		}
	}
	JOINT LeftUpLeg
	{
		OFFSET 9.98441 0.00000 0.00000
		CHANNELS 3 Zrotation Xrotation Yrotation
		JOINT LeftLeg
		{
			OFFSET 0.00000 -42.11800 0.00000
			CHANNELS 3 Zrotation Xrotation Yrotation
			JOINT LeftFoot
			{
				OFFSET 0.00000 -45.00070 0.00000
				CHANNELS 3 Zrotation Xrotation Yrotation
				JOINT LeftForeFoot
				{
					OFFSET 0.00000 -3.74824 0.00000
					CHANNELS 3 Zrotation Xrotation Yrotation
					JOINT LeftToeBase
					{
						OFFSET 0.00000 0.06325 14.43110
						CHANNELS 3 Zrotation Xrotation Yrotation
						End site
						{
							OFFSET 0.00000 0.00000 0.00000
						}
					}
				}
			}
		}
	}
}
MOTION
Frames: 4
Frame Time: 0.050000
0.03210157397149757 0.017761740823008104 -0.029779432895416336 -0.0338381914375691 -0.001971151854730631 0.019731910067050735 -2.146437068806667 3.936354585744509 -1.0648221024452709 -0.9454206449192983 3.8309243474776182 0.3474206698942238 -0.9975195925722071 -0.39755331351573625 -1.0735499892154061 0.6191329628297773 0.3741845753885282 -0.835708645456846 -0.12890314296877725 11.041033016734282 -1.0389482097225835 -0.06284654331677042 -1.0166077372612286 -3.5555253404841656 0.36422304770516256 -15.818367731579887 -0.28177599209570797 0.3187573508735216 0.5077075364490286 -14.927824217380408 66.11797816086903 1.2393684539692844 9.056261000983568 30.72281231135387 -1.9108618462920361 93.83374175986174 13.623240161336321 -0.25342744482765966 -4.458314517685035 4.558026095318042 -0.1266431976729867 -1.6300277131943164 0.03521369272505301 -0.0387811515425844 -56.25902572344467 -0.04372120001011181 0.003415792543465044 -56.23778331059799 -38.772365234051996 -0.009144608868661964 0.002897309380745946 -0.014831041707100041 0.027442529798824226 -0.01569755565440749 0.026658749498096157 -0.03359099279892999 0.0029958412112033833 -36.66624788165513 0.012649008887197544 -0.022619195198990607 0.013334361301673937 0.044533156176894205 0.03822238924588013 -0.012780521336320906 0.016344491006361307 -0.025193518913399535 -19.76516090405297 -0.019453220502036718 -0.036090139650687476 -0.035993679589465456 -0.03818678538489984 0.036348676198812296 -0.039860614907275965 -0.04978016550626368 -0.00958651960113191 24.021322372366484 -0.00564726754032623 0.025976151544732894 28.819040308687708 -0.022069793060662896 0.026154527845813545 28.85578152246333 0.031207299785201183 0.0024145302441221845 1.1097459511257874 0.6975417800184875 12.71856374724334 -61.725830587992284 26.73837606957687 -17.162149955775394 -6.2924774403827275 6.794043332838706 -75.96054752188147 -13.200632026326277 3.8082709435888034 -1.745561362516307 -0.5073962195150634 0.11345008110491112 -8.113810830910301 -0.004981159137067093 0.0027794241698593744 44.54369459417657 0.02717655076080799 0.018607570162595625 44.585107624447815 12.463342661211668 0.019486650405962192 0.04071881166153344 0.003429243005538577 -0.04127153080940618 -0.0024499741613851615 -0.003523588626332337 -0.03258503439449453 0.03645505677565283 11.115135315546723 -0.02695359940482636 -0.024448734236640818 -0.03881398453432562 0.008425271274070629 -0.007088765305456166 0.028209158514083704 -0.024209345824718138 -0.008385491478069546 4.7677596028191225 0.012005709680484832 0.013576317569867536 0.0016907136528456685 0.024715830827005788 -0.042922400457570564 -0.01634762828222187 0.009676654405565319 -0.04899519252283584 -5.603927455432845 -0.012277405903159776 -0.04204776202020094 -6.704850997822442 -0.026043347450232415 0.04042576380371307 -6.751748893763872 0.011816390413684921 0.03884573295036618 0.004350392824299563 0.028394830355937074 0.04626545990013732 8.040554468188127 3.5331251195090907 -19.193501306181524 0.005325378875217506 10.4215306015232 0.03288312209919632 -5.661917585626565 -15.632403779319063 3.220424710669152 0.014072476088420386 -0.015338795856451093 0.022622157578821654 -0.038006989057320716 4.662457925129586 -0.03813907527107699 12.421470296047106 -8.26460379664515 6.894182377896691 -0.0005998731207623682 46.37248675308484 -0.01633591009976972 -4.330760645317358 -14.72786805465386 -3.7975814827780128 0.029541395740971796 0.030640281742123427 -0.008423608980509823 -0.005172252694397099 -10.746321195067335 -0.011549880347972627 
0.005159182365064418 -0.01226524569416807 0.008297842600015275 0.00933418902509405 -0.026296357589158277 0.04241490597266633 -2.122932324771007 3.9420813187682295 -0.9851153498577734 -0.9364255140794934 3.829856123314605 0.4044182115696981 -0.9548377792588394 -0.34112115318417086 -0.9023120677208093 0.6222379826202958 0.3492181236342231 -0.7956374735487186 -0.2509265033890912 11.070412076940565 -0.8828780816384584 -0.021285774449794764 -0.9904068442302889 -3.398883157911799 0.2688217467605713 -15.865546962968434 -0.22037150095464683 0.5039830168092764 0.49037424224449283 -14.551506706195102 65.48061038749049 3.4156878166665807 10.815797301019986 31.141990431891443 -2.350950532479301 93.0268837942121 15.109137805589505 -0.2618925838867021 -5.001944976200885 4.481418693702073 -0.11044677473218499 -1.5932957556030873 0.014484994779797044 0.0131346177188358 -56.233107574077394 0.004590475264218322 0.010674602929180071 -56.19285432638854 -38.78199223486908 -0.0032294565807844144 -0.025117474129894013 -0.04185424503577782 0.044996807524695696 -0.029193654428375782 0.03330540702059618 -0.027664592179830087 0.039117079552026195 -36.68944429943908 -0.010460481384881695 -0.029549483187864274 -0.040735428893209455 -0.02153255109815168 0.017696798378465262 -0.04235252501520784 0.008394824105431424 0.03781138314228707 -19.721567693026223 0.046774267415593096 0.023879676331275457 0.03501060825801916 -0.03744221627613139 0.02576923493319964 0.04177654000052169 -0.020886460518334194 -0.04597996345442275 24.049676832423025 -0.02356101946813916 -0.007314259938218976 28.900874605238972 -0.012385510379176505 0.0038749067217556644 28.885216710449782 0.001973791049427009 -0.04551851166479042 1.281509929700614 0.6846249918556558 12.685170272261018 -60.6349725826851 26.743584549266586 -19.501302978653236 -4.546917885763229 5.2006985779821004 -77.23744265964287 -13.759769466075577 4.290621810606918 -2.295566002232782 -0.47286687742511124 0.08306866315470576 -8.162378900253687 0.03118235475236384 0.027314529111868376 44.5516999922378 0.03040626460744331 -0.037335243297254864 44.55944741546126 12.442116719691638 -0.03640117628776118 0.01858702748449637 -0.029798029274646344 -0.005913640246381487 0.03018235724771391 0.03963977450129123 0.04483143200329494 0.048919091292157275 11.139728671649674 0.039463010064746715 -0.04009695961983107 -0.0037444490551830174 -0.008772029955219623 0.004121923191045347 -0.026808423192755948 0.007954954777461345 0.04376070984089078 4.816296044875074 0.0153430717268985 -0.023825751660974354 -0.009100513079720943 0.03228443138069895 -0.0029647328900269457 0.03010862080201431 -0.014599131592923845 -0.00038696726832928484 -5.646434300048326 -0.02876485399867631 -0.018236729249252442 -6.702411181717321 -0.047459390535406945 -0.01884958079214421 -6.754817718106297 0.010996754953918216 7.448590153382458e-05 0.04775499754574274 -0.012249573389317949 0.03236824407871345 8.0830686912181 3.526416949404353 -19.21611701679828 0.032594416634541504 10.379275000927716 0.0023388777701400278 -5.640013257819074 -15.70678888366076 3.192336630845783 -0.03374145371371443 0.037217980034953704 -0.019321790750641228 -0.026316271708768334 4.680054291692354 -0.016801264486183465 12.45498983521311 -8.252763669547676 6.911101862719129 0.03858077040447163 46.367976362647006 -0.0022985411097617174 -4.321840753840395 -14.78525619780905 -3.798095179117662 0.026310200080344768 -0.015675930067839298 0.009671997374575716 -0.013504161053062881 -10.783809480004157 -0.03918458481517524 
0.015318967007373216 -0.033590141979746004 0.026822870862059197 0.01743737153971251 0.026581023460176545 -0.007233514139989471 -2.2172858632607975 4.145785154890252 -0.9720961037079805 -0.9354538040974996 3.8403576619657005 0.3813874254208768 -0.9054679728659303 -0.3713204896309039 -0.9315627691407269 0.6083136563996745 0.3607370511480701 -0.7958209560541605 -0.3399692773633645 10.997568243115115 -0.8166806296360875 -0.09985356208668326 -0.9876577295092405 -3.3244415616370415 0.2802202117570716 -15.825488575665348 -0.21872240283902192 0.7393817857806921 0.412494093148627 -14.321479758034654 64.78453589662051 4.586214890290705 12.05825461826495 31.902486942362945 -2.3439068212304264 92.58156512507564 16.051217291933654 -0.2946417387027742 -5.559140412997361 4.492091936720365 -0.14213462514757713 -1.55450561048662 0.007470661306157093 -0.039113479185683996 -56.22904832752618 -0.012819811939645308 0.008320679484167861 -56.21480885742802 -38.73417110589133 -0.03936808075331011 -0.004493491346768091 0.008290538361548014 -0.031013681932037285 -0.01731277552007317 0.018605077967842307 -0.047452154016412486 -0.04970018062455214 -36.67243677963589 -0.029914840095747887 0.011165228916610351 -0.03980079374698361 0.019665454694474522 0.02880943531794835 0.017896290407163593 0.022305247426492755 0.02802061887509559 -19.76241667153161 0.04628381375318414 0.0025121367105795087 0.021356457834194723 0.02153501975354917 -0.018555301620210338 0.042633936894186555 0.042244491542564135 -0.00945877807268628 24.086511608132195 -0.037250752186017554 0.03858225378161988 28.832141156910996 -0.004713403184843313 0.03181813299752396 28.90870495960998 0.014372710496833875 -0.0085822413098906 1.2413521996499863 0.6989700206718311 12.608489236473982 -59.49127406777364 27.16153180554253 -21.239528840145493 -2.544828787204156 3.909467411939592 -78.18972947556875 -13.983979763378352 4.669294906293372 -2.7804171254327565 -0.47842509049673904 0.10549938791796067 -8.15927096073716 -0.03050332055043409 -0.034465000564871645 44.51982324724213 0.046409874617166995 0.005480009902004558 44.53966425609819 12.499816440955748 0.040789769870818025 -0.020525990328321978 -0.041913595109568116 0.035159794087899085 -0.027845817562458894 0.023033150870231944 0.035695205208184755 0.0420958333893334 11.085771525127234 0.00866803702077774 0.017182756170460105 0.01162435617506134 0.012734779970456814 -0.020690128804452996 0.0061961838741899766 -0.024158145840484053 -0.013075174146177856 4.735878037710545 -0.0320768919866073 0.02838466572613128 0.01031662318712941 0.03326935121129839 0.04422836107310172 0.01592161589375314 0.007715659090356399 0.029547120304709965 -5.643275203199972 -0.014739258412498122 0.046731188931946784 -6.685631695070967 -0.04566361912386145 -0.02226860375043363 -6.7371986453530015 0.045488067852107066 -0.0446682389256905 0.04884925991916744 -0.0019459446546355578 -0.014251444191169046 8.023723663023537 3.4593163389127213 -19.26445652411763 0.0009508429293366974 10.440244232051633 0.03868134804241538 -5.590738300579532 -15.631444046314483 3.233794505848152 -0.02615798700313536 -0.02175130533693427 -0.005061003497408725 -0.03202066778647534 4.676298852010269 0.028934694301338767 12.463666286978382 -8.229603930868908 6.887364792268152 -0.028715772143777983 46.35856451133877 -0.03153244864919771 -4.345652507361329 -14.70634619238678 -3.8287611412375613 -0.017324885534387473 -0.004651337185920768 0.018202587374610227 0.03526901417042203 -10.790305182223275 0.025448495763150586 
0.02209709622731172 -0.04256193587128265 -0.009330914130887834 -0.014468321045700486 -0.04389772151426488 -0.039337127871679776 -2.2594524645175214 4.248250981213746 -0.9397090892311382 -0.8484952329970631 3.7964603653382567 0.4012836524790197 -0.924854539217859 -0.3037295302562132 -1.038986976958182 0.6100953406491894 0.4173728634645184 -0.8449431384193229 -0.40468007055031746 10.931293091235784 -0.8358026755822991 -0.05726197113608803 -0.9732907555346029 -3.337601881403026 0.2414244570573209 -15.7845782172354 -0.30154928681894555 1.0458455379667233 0.2927925226057924 -14.158199669782471 64.06664074401068 5.009792165324953 12.850678736258681 32.75583749328626 -2.0237687727379976 92.43869274372994 16.64113303591514 -0.23830890456549342 -6.038224633416763 4.534878812533417 -0.12316630741471855 -1.6355124254841715 0.017632519250051958 -0.011688144709621068 -56.26438176529155 -0.018645940056889732 -0.03227482268128671 -56.26612662140957 -38.78973960934207 0.030421426336337307 -0.02547063479352905 0.02894636252657419 -0.008506683741058212 -0.02029382651229885 0.016653206181894805 -0.029490899321595057 0.0019076646587034354 -36.65175119613578 0.020810467236099403 0.039570094124002864 -0.042586556131207924 -0.0033575537499137952 0.026006198982459736 0.04428631028936019 -0.03495524894699023 -0.02203512583863252 -19.712458243717688 -0.026915044082997053 0.04127755605206144 -0.024892085385841013 0.014036634612685442 0.0031048955005105712 0.04093646796173079 0.00635293945770062 -0.049400775318803165 24.0716264031649 -0.03546652732014021 -0.04079176635306989 28.863259911785477 0.025261331097556527 0.029012126059304262 28.904984504905606 -0.03756574360593895 0.018713561799651616 0.9581576726619162 0.6234494960571527 12.415156695381452 -58.33497646784791 27.76361115306073 -22.523132682797712 -0.44444052674647516 2.8867383360842447 -78.84485540452906 -13.941125143031336 4.960418599894345 -3.1435791588670523 -0.47231113513578443 0.038248612309349464 -8.136305595165242 -0.03714551601892864 -0.03377954999632961 44.59175794423823 -0.016749547749132277 0.012237319062125614 44.58146471022317 12.502169443841835 0.048375566967693504 -0.047214499366311766 -0.032218233731404616 -0.0046352281724118235 -0.026903297724993617 -0.01976080194983839 -0.0055618570480784005 0.04693208921159509 11.110422152895774 0.023390792481551764 0.0072159714209560615 -0.04555657353745417 -0.0041919295165870445 0.047953630630789015 -0.0370177891140776 -0.0012580244111598873 -0.04311040513503053 4.7274463178991555 -0.029323081062945306 0.0079999250332019 -0.002833914832935089 -0.037723942019540796 0.031071888296430244 -0.040890758956804885 -0.028918906037525772 0.04141161348625731 -5.601294123156582 -0.001855405436167301 -0.044087092113158824 -6.724035658848826 0.03198696051278118 0.03683708958761599 -6.752608894052114 0.0436031142912909 0.02524873011720966 0.04315115939650807 0.017489975449970146 -0.028761278690612187 8.068412348318574 3.509772388060378 -19.235645871366067 -0.007903242108716537 10.401614826422362 -0.018797109959397044 -5.647024934698136 -15.66558606969718 3.1996472590897524 0.005686666264187969 0.004161229458464273 -0.04068622816085176 0.015223578597964443 4.703111650328297 0.026286766443670034 12.488311156905949 -8.228554043457546 6.847144115698759 -0.0040520966233104656 46.34496763848687 -0.004500394802192239 -4.292163051450234 -14.750334131410874 -3.820168651635374 0.023549445219575943 -0.016556689032095805 -0.042783244219680674 0.03353947514268179 -10.757416425098612 0.015624253565212253 
